<svg width="114" height="72" viewBox="0 0 57 36" fill="none" xmlns="http://www.w3.org/2000/svg">
<path d="M6.24 22.252C5.416 22.252 4.684 22.172 4.044 22.012C3.412 21.852 2.892 21.636 2.484 21.364C2.084 21.092 1.752 20.756 1.488 20.356C1.232 19.948 1.052 19.52 0.948 19.072C0.844 18.624 0.792 18.128 0.792 17.584V7.936H5.064V17.044C5.064 18.06 5.168 18.76 5.376 19.144C5.592 19.52 5.904 19.708 6.312 19.708C6.536 19.708 6.732 19.672 6.9 19.6C7.068 19.52 7.224 19.388 7.368 19.204C7.512 19.012 7.62 18.74 7.692 18.388C7.772 18.028 7.812 17.592 7.812 17.08V7.936H11.604V17.656C11.604 18.192 11.556 18.676 11.46 19.108C11.372 19.54 11.204 19.96 10.956 20.368C10.716 20.768 10.396 21.104 9.996 21.376C9.604 21.64 9.088 21.852 8.448 22.012C7.816 22.172 7.08 22.252 6.24 22.252ZM19.0222 22H15.2302L11.8822 7.936H15.8782L16.5142 12.784L17.4622 17.488L18.6742 12.784L18.9862 11.5L18.0622 7.936H21.9862L22.8502 12.784L23.9062 17.488L24.5662 12.784L25.2742 7.936H28.9222L25.8262 22H21.7342L20.2582 16.348L19.0222 22ZM36.0751 22L35.5351 19.756H32.1271L31.6711 22H28.1431L31.8031 8.908L31.5151 7.936H36.4711L40.4791 22H36.0751ZM33.6751 12.064L32.6191 17.308H34.9471L33.6751 12.064ZM46.7604 22H42.9684L39.6204 7.936H43.6164L44.2524 12.784L45.2004 17.488L46.4124 12.784L46.7244 11.5L45.8004 7.936H49.7244L50.5884 12.784L51.6444 17.488L52.3044 12.784L53.0124 7.936H56.6604L53.5644 22H49.4724L47.9964 16.348L46.7604 22Z" fill="#E60808"/>
<path d="M4.79901 34V26.7273H7.39134C7.95715 26.7273 8.4259 26.8303 8.79759 27.0362C9.16927 27.2422 9.44744 27.5239 9.6321 27.8814C9.81676 28.2365 9.90909 28.6366 9.90909 29.0817C9.90909 29.5291 9.81558 29.9316 9.62855 30.2891C9.44389 30.6442 9.16454 30.9259 8.79048 31.1342C8.4188 31.3402 7.95123 31.4432 7.38778 31.4432H5.60511V30.5128H7.28835C7.64583 30.5128 7.93584 30.4512 8.15838 30.3281C8.38092 30.2027 8.54427 30.0322 8.64844 29.8168C8.7526 29.6013 8.80469 29.3563 8.80469 29.0817C8.80469 28.8071 8.7526 28.5632 8.64844 28.3501C8.54427 28.1371 8.37973 27.9702 8.15483 27.8494C7.93229 27.7287 7.63873 27.6683 7.27415 27.6683H5.89631V34H4.79901ZM11.0384 34H9.87358L12.4908 26.7273H13.7585L16.3757 34H15.2109L13.1548 28.0483H13.098L11.0384 34ZM11.2337 31.152H15.0121V32.0753H11.2337V31.152ZM17.426 34V26.7273H20.0183C20.5817 26.7273 21.0493 26.8243 21.421 27.0185C21.795 27.2126 22.0744 27.4813 22.2591 27.8246C22.4437 28.1655 22.536 28.5597 22.536 29.0071C22.536 29.4522 22.4425 29.844 22.2555 30.1825C22.0708 30.5187 21.7915 30.7803 21.4174 30.9673C21.0458 31.1544 20.5782 31.2479 20.0147 31.2479H18.051V30.3033H19.9153C20.2704 30.3033 20.5592 30.2524 20.7818 30.1506C21.0067 30.0488 21.1712 29.9008 21.2754 29.7067C21.3796 29.5125 21.4316 29.2794 21.4316 29.0071C21.4316 28.7325 21.3784 28.4946 21.2718 28.2933C21.1677 28.0921 21.0031 27.9382 20.7782 27.8317C20.5557 27.7228 20.2633 27.6683 19.9011 27.6683H18.5233V34H17.426ZM21.0162 30.7188L22.813 34H21.563L19.8017 30.7188H21.0162ZM23.8713 34V26.7273H28.3812V27.6719H24.9686V29.8878H28.0581V30.8288H24.9686V34H23.8713ZM34.4075 26.7273H35.5083V31.5107C35.5083 32.0196 35.3888 32.4706 35.1497 32.8636C34.9106 33.2543 34.5744 33.562 34.1412 33.7869C33.7079 34.0095 33.2001 34.1207 32.6177 34.1207C32.0377 34.1207 31.5311 34.0095 31.0978 33.7869C30.6646 33.562 30.3284 33.2543 30.0893 32.8636C29.8502 32.4706 29.7306 32.0196 29.7306 31.5107V26.7273H30.8279V31.4219C30.8279 31.7509 30.9002 32.0433 31.0446 32.299C31.1913 32.5547 31.3985 32.7559 31.666 32.9027C31.9335 33.0471 32.2508 33.1193 32.6177 33.1193C32.987 33.1193 33.3055 33.0471 33.573 32.9027C33.8429 32.7559 34.0488 32.5547 34.1909 32.299C34.3353 32.0433 34.4075 31.7509 34.4075 31.4219V26.7273ZM37.1037 26.7273H38.4354L40.7507 32.3807H40.8359L43.1513 26.7273H44.483V34H43.4389V28.7372H43.3714L41.2266 33.9893H40.3601L38.2152 28.7337H38.1477V34H37.1037V26.7273ZM46.0783 34V26.7273H50.638V27.6719H47.1756V29.8878H50.4V30.8288H47.1756V33.0554H50.6806V34H46.0783Z" fill="black"/>
</svg>
